<svg width="1312" height="839" xmlns="http://www.w3.org/2000/svg"><defs><filter x="-19.1%" y="-19.1%" width="138.1%" height="138.1%" filterUnits="objectBoundingBox" id="a"><feGaussianBlur stdDeviation="50" in="SourceGraphic"/></filter><filter x="-27.2%" y="-27.2%" width="154.5%" height="154.5%" filterUnits="objectBoundingBox" id="b"><feGaussianBlur stdDeviation="50" in="SourceGraphic"/></filter><filter x="-38.1%" y="-38.1%" width="176.2%" height="176.2%" filterUnits="objectBoundingBox" id="c"><feGaussianBlur stdDeviation="50" in="SourceGraphic"/></filter><filter x="-64.4%" y="-64.4%" width="228.8%" height="228.8%" filterUnits="objectBoundingBox" id="d"><feGaussianBlur stdDeviation="50" in="SourceGraphic"/></filter><filter x="-17.9%" y="-43%" width="135.8%" height="186%" filterUnits="objectBoundingBox" id="e"><feGaussianBlur stdDeviation="50" in="SourceGraphic"/></filter><filter x="-29.9%" y="-65.2%" width="159.9%" height="230.4%" filterUnits="objectBoundingBox" id="f"><feGaussianBlur stdDeviation="50" in="SourceGraphic"/></filter><filter x="-14.7%" y="-52.7%" width="129.4%" height="205.4%" filterUnits="objectBoundingBox" id="h"><feGaussianBlur stdDeviation="52.358" in="SourceGraphic"/></filter><filter x="-31%" y="-25.1%" width="162%" height="150.3%" filterUnits="objectBoundingBox" id="j"><feGaussianBlur stdDeviation="52.358" in="SourceGraphic"/></filter><radialGradient cx="49.845%" cy="50.602%" fx="49.845%" fy="50.602%" r="49.401%" gradientTransform="matrix(.00314 .99994 -.82818 .03344 .916 -.01)" id="g"><stop stop-color="#D0B2FF" stop-opacity=".764" offset="0%"/><stop stop-color="#D0B2FF" stop-opacity="0" offset="100%"/></radialGradient><radialGradient cx="50%" cy="50%" fx="50%" fy="50%" r="62.967%" gradientTransform="matrix(-.20443 .79407 -.7833 -.1327 .994 .17)" id="i"><stop stop-color="#FFB2EB" stop-opacity=".8" offset="0%"/><stop stop-color="#FFBEEE" stop-opacity="0" offset="100%"/></radialGradient></defs><g fill="none" fill-rule="evenodd"><g transform="translate(750.41 -182.478)" fill="#B6B8F1"><circle opacity=".263" filter="url(#a)" cx="393.5" cy="393.5" r="393.5"/><circle opacity=".475" filter="url(#b)" cx="404.518" cy="377.235" r="275.45"/><circle opacity=".57" filter="url(#c)" cx="428.84" cy="377.235" r="196.84"/><circle opacity=".57" filter="url(#d)" cx="417.5" cy="377.235" r="116.5"/></g><g transform="rotate(-35 220.384 -221.552)" fill="#D5EDFA"><ellipse opacity=".497" filter="url(#e)" cx="443.723" cy="383.557" rx="419.5" ry="174.5"/><ellipse filter="url(#f)" cx="443.723" cy="383.557" rx="250.5" ry="115"/></g><ellipse fill="url(#g)" opacity=".873" filter="url(#h)" cx="534.5" cy="101" rx="534.5" ry="149"/><ellipse fill="url(#i)" opacity=".475" filter="url(#j)" cx="897.989" cy="427.743" rx="253.5" ry="312.5"/></g></svg>